700 0 1 0           
30 Autodesk Translation Framework 20 ASM 226.0.3.65535 NT 24 Thu Sep  1 23:10:14 2022 
1 9.999999999999999547e-07 1.000000000000000036e-10 
body $1 -1 $-1 $2 $-1 $3 #
rgb_color-st-attrib $-1 -1 $4 $-1 $0 0.7490196078431372584 0.7490196078431372584 0.7490196078431372584 #
lump $-1 -1 $-1 $-1 $5 $0 #
transform $-1 -1 1 0 0 0 1 0 0 0 1 0 0 0 1 no_rotate no_reflect no_shear #
DXID-attrib $-1 -1 $-1 $1 $0 @10 ASM ENTITY @101 TRIANGLE_V3.IPT|:|E8BB39C5AFAEBE118298E93F7B93DA4B63D695F1|:|DA4B9237BACCCDF19C0760CAB7AEC4A8359010B0 #
shell $-1 -1 $-1 $-1 $-1 $6 $-1 $2 #
face $7 -1 $-1 $8 $9 $5 $-1 $10 reversed single #
DXID-attrib $-1 -1 $-1 $-1 $6 @10 ASM ENTITY @36 c40b8c91-a855-4dcc-a2aa-1de39aa5003b #
face $11 -1 $-1 $12 $13 $5 $-1 $14 reversed single #
loop $-1 -1 $-1 $-1 $15 $6 #
cone-surface $-1 -1 $-1 128.9516943338165333 108.8881605988113108 101.2468861708244816 0 0.6809437453161916176 -0.7323357260947723768 35 7.209530145258875947e-15 6.703598205240707332e-15 1 I I 0 1 35 forward I I I I #
DXID-attrib $-1 -1 $-1 $-1 $8 @10 ASM ENTITY @36 3adbe7a8-c4a8-4e95-8ac6-7c41da5fd679 #
face $16 -1 $-1 $17 $18 $5 $-1 $19 reversed single #
loop $-1 -1 $-1 $-1 $20 $8 #
cone-surface $-1 -1 $-1 142.9516943338165618 92.62663796797021121 86.12652302284942607 0 0.6809437453161916176 -0.7323357260947723768 8.75 1.802382536314718987e-15 1.675899551310176833e-15 1 I I 0 1 8.75 forward I I I I #
coedge $-1 -1 $-1 $21 $22 $23 $24 reversed $9 $-1 #
DXID-attrib $-1 -1 $-1 $-1 $12 @10 ASM ENTITY @36 338b8c37-8431-43c8-aa09-51ffb4f7d780 #
face $25 -1 $-1 $26 $27 $5 $-1 $28 reversed single #
loop $-1 -1 $-1 $-1 $29 $12 #
cone-surface $-1 -1 $-1 128.9516943338165333 108.8881605988113108 101.2468861708244816 0 0.6809437453161916176 -0.7323357260947723768 -17.5 -3.604765072629437974e-15 -3.351799102620353666e-15 1 I I 0 -1 17.5 forward I I I I #
coedge $-1 -1 $-1 $30 $31 $32 $33 reversed $13 $-1 #
coedge $-1 -1 $-1 $34 $15 $31 $35 forward $9 $-1 #
coedge $-1 -1 $-1 $15 $34 $36 $37 reversed $9 $-1 #
coedge $-1 -1 $-1 $38 $32 $15 $24 forward $39 $-1 #
edge $-1 -1 $-1 $40 1.008260082251039691 $41 5.274925224928546541 $23 $42 forward @7 unknown #
DXID-attrib $-1 -1 $-1 $-1 $17 @10 ASM ENTITY @36 516a5b3c-f3b7-45e1-a3d1-0d344cabfe9a #
face $43 -1 $-1 $44 $45 $5 $-1 $46 forward single #
loop $-1 -1 $-1 $-1 $47 $17 #
cone-surface $-1 -1 $-1 142.9516943338165618 125.1496832296524246 116.3672493187995514 0 0.6809437453161916176 -0.7323357260947723768 8.75 1.802382536314718987e-15 1.675899551310176833e-15 1 I I 0 1 8.75 forward I I I I #
coedge $-1 -1 $-1 $48 $49 $50 $51 reversed $18 $-1 #
coedge $-1 -1 $-1 $52 $20 $49 $53 forward $13 $-1 #
coedge $-1 -1 $-1 $20 $52 $21 $35 reversed $13 $-1 #
coedge $-1 -1 $-1 $23 $50 $20 $33 forward $39 $-1 #
edge $-1 -1 $-1 $54 -2.133332571338753869 $40 1.008260082251039691 $32 $55 forward @7 unknown #
coedge $-1 -1 $-1 $22 $21 $56 $57 forward $9 $-1 #
edge $58 -1 $-1 $40 0 $59 1.000000000000000444 $31 $60 forward @7 tangent #
coedge $-1 -1 $-1 $61 $47 $22 $37 forward $27 $-1 #
edge $62 -1 $-1 $41 0 $63 1.000000000000000444 $36 $64 forward @7 tangent #
coedge $-1 -1 $-1 $50 $23 $47 $65 forward $39 $-1 #
loop $-1 -1 $-1 $66 $23 $67 #
vertex $-1 -1 $-1 $24 $68 #
vertex $-1 -1 $-1 $24 $69 #
ellipse-curve $-1 -1 $-1 128.9516943338165333 108.8881605988112824 101.2468861708245242 -2.0847889452522112e-16 0.6809437453161916176 -0.7323357260947723768 35 7.209530145258875947e-15 6.703598205240707332e-15 1 I I #
DXID-attrib $-1 -1 $-1 $-1 $26 @10 ASM ENTITY @36 0ab3761e-4dcd-431d-9767-da4540d93549 #
face $70 -1 $-1 $71 $72 $5 $-1 $73 reversed single #
loop $-1 -1 $-1 $-1 $74 $26 #
plane-surface $-1 -1 $-1 122.8266943338165618 115.6975980519732303 93.9235289098768078 2.0847889452522112e-16 -0.6809437453161916176 0.7323357260947723768 10 0 -2.846766682228495095e-15 forward_v I I I I #
coedge $-1 -1 $-1 $36 $75 $38 $65 reversed $27 $-1 #
coedge $-1 -1 $-1 $76 $29 $75 $77 forward $18 $-1 #
coedge $-1 -1 $-1 $29 $76 $30 $53 reversed $18 $-1 #
coedge $-1 -1 $-1 $32 $38 $29 $51 forward $39 $-1 #
edge $-1 -1 $-1 $78 -2.133332571338753869 $54 2.133332571338753425 $50 $79 forward @7 unknown #
coedge $-1 -1 $-1 $31 $30 $80 $81 forward $13 $-1 #
edge $82 -1 $-1 $54 0 $83 1.000000000000000444 $49 $84 forward @7 tangent #
vertex $-1 -1 $-1 $33 $85 #
ellipse-curve $-1 -1 $-1 142.9516943338165618 92.62663796797016857 86.12652302284945449 -2.0847889452522112e-16 0.6809437453161916176 -0.7323357260947723768 8.75 1.802382536314718987e-15 1.675899551310176833e-15 1 I I #
coedge $-1 -1 $-1 $80 $74 $34 $57 reversed $45 $-1 #
edge $86 -1 $-1 $59 -5.274925224928546541 $63 -1.008260082251039913 $34 $87 forward @7 unknown #
DXID-attrib $-1 -1 $-1 $-1 $35 @10 ASM ENTITY @36 bcefb77c-73e7-4273-acb1-fa4d913c7ba8 #
vertex $-1 -1 $-1 $35 $88 #
straight-curve $-1 -1 $-1 147.6183610004832474 87.20613042435651607 81.08640197352443124 0 6.809437453161915954 -7.323357260947723546 I I #
coedge $-1 -1 $-1 $75 $36 $74 $89 forward $27 $-1 #
DXID-attrib $-1 -1 $-1 $-1 $37 @10 ASM ENTITY @36 3742fe82-60af-44f0-a75c-bbc102ca570d #
vertex $-1 -1 $-1 $57 $90 #
straight-curve $-1 -1 $-1 147.618361000483219 130.5701907732661198 121.4073703681245604 0 6.809437453161915954 -7.323357260947723546 I I #
edge $-1 -1 $-1 $41 -1.008260082251039913 $78 2.133332571338752093 $38 $91 forward @7 unknown #
loop $-1 -1 $-1 $92 $93 $67 #
face $94 -1 $-1 $95 $39 $5 $-1 $96 reversed single #
point $-1 -1 $-1 147.6183610004832474 87.20613042435651607 81.08640197352443124 #
point $-1 -1 $-1 147.618361000483219 130.5701907732661198 121.4073703681245604 #
DXID-attrib $-1 -1 $-1 $-1 $44 @10 ASM ENTITY @36 6537ef17-5f9d-4b81-b0c1-dca2d5af3ac5 #
face $97 -1 $-1 $98 $99 $5 $-1 $100 reversed single #
loop $-1 -1 $-1 $-1 $101 $44 #
cone-surface $-1 -1 $-1 48.95169433381654756 124.267210846801504 115.5467048224645055 0 0.6809437453161916176 -0.7323357260947723768 -3.937827905080725631e-15 10.25270016532681439 9.533212434426683757 1 I I 0 1 14 forward I I I I #
coedge $-1 -1 $-1 $56 $102 $61 $89 reversed $45 $-1 #
coedge $-1 -1 $-1 $47 $61 $48 $77 reversed $27 $-1 #
coedge $-1 -1 $-1 $49 $48 $102 $103 forward $18 $-1 #
edge $104 -1 $-1 $78 0 $105 1.000000000000000444 $75 $106 forward @7 tangent #
vertex $-1 -1 $-1 $51 $107 #
ellipse-curve $-1 -1 $-1 128.9516943338165333 108.8881605988112824 101.2468861708245242 2.0847889452522112e-16 -0.6809437453161916176 0.7323357260947723768 -17.5 -3.604765072629437974e-15 -3.351799102620353666e-15 1 I I #
coedge $-1 -1 $-1 $102 $56 $52 $81 reversed $45 $-1 #
edge $108 -1 $-1 $83 -2.133332571338754757 $59 1.008260082251038581 $52 $109 forward @7 unknown #
DXID-attrib $-1 -1 $-1 $-1 $53 @10 ASM ENTITY @36 46a27eb9-0dfa-4e40-ae28-2231194e256f #
vertex $-1 -1 $-1 $53 $110 #
straight-curve $-1 -1 $-1 138.2850276671498762 98.04714551158390634 91.16664407217444932 0 6.809437453161915954 -7.323357260947723546 I I #
point $-1 -1 $-1 138.2850276671498762 98.04714551158390634 91.16664407217444932 #
DXID-attrib $-1 -1 $-1 $-1 $57 @10 ASM ENTITY @36 c52c3e8a-c6e7-4007-bb6c-bd0ee541bc4b #
ellipse-curve $-1 -1 $-1 128.9516943338165333 115.6975980519732445 93.92352890987679359 -2.0847889452522112e-16 0.6809437453161916176 -0.7323357260947723768 35 1.217821411926729454e-14 1.359919214325991288e-15 1 I I #
point $-1 -1 $-1 147.6183610004832474 94.01556787751843558 73.76304471257670059 #
edge $111 -1 $-1 $63 -1.008260082251039691 $105 2.133332571338752093 $61 $112 forward @7 unknown #
point $-1 -1 $-1 147.618361000483219 137.3796282264280251 114.084013107176844 #
ellipse-curve $-1 -1 $-1 142.9516943338165618 125.149683229652382 116.367249318799594 -2.0847889452522112e-16 0.6809437453161916176 -0.7323357260947723768 8.75 1.802382536314718987e-15 1.675899551310176833e-15 1 I I #
loop $-1 -1 $-1 $-1 $113 $67 #
coedge $-1 -1 $-1 $114 $115 $101 $116 forward $66 $-1 #
DXID-attrib $-1 -1 $-1 $-1 $67 @10 ASM ENTITY @36 c262adb1-6ff4-4e72-9891-60baecbd896d #
face $117 -1 $-1 $118 $119 $5 $-1 $120 forward single #
plane-surface $-1 -1 $-1 0 0 3.552713678800500929e-14 -2.0847889452522112e-16 0.6809437453161916176 -0.7323357260947723768 -2.242131507158039185e-15 7.323357260947723546 6.809437453161915954 forward_v I I I I #
DXID-attrib $-1 -1 $-1 $-1 $71 @10 ASM ENTITY @36 eabfdbe0-7eed-40de-946f-b2a9dc07e6ab #
face $121 -1 $-1 $122 $123 $5 $-1 $124 reversed single #
loop $-1 -1 $-1 $-1 $125 $71 #
plane-surface $-1 -1 $-1 34.95169433381656177 93.50911035082107503 86.94706751918447196 -1 -2.059865755788250088e-16 -1.915313772925916078e-16 -2.812734217914804247e-15 7.323357260947723546 6.809437453161915954 forward_v I I I I #
coedge $-1 -1 $-1 $126 $127 $93 $116 reversed $72 $-1 #
coedge $-1 -1 $-1 $74 $80 $76 $103 reversed $45 $-1 #
edge $128 -1 $-1 $105 -2.133332571338753869 $83 2.133332571338753869 $76 $129 forward @7 unknown #
DXID-attrib $-1 -1 $-1 $-1 $77 @10 ASM ENTITY @36 1319efe2-0d10-4c94-8fc2-612b9a2a72a8 #
vertex $-1 -1 $-1 $77 $130 #
straight-curve $-1 -1 $-1 138.2850276671498762 119.7291756860387011 111.3271282694745281 0 6.809437453161915954 -7.323357260947723546 I I #
point $-1 -1 $-1 138.2850276671498762 119.7291756860387011 111.3271282694745281 #
DXID-attrib $-1 -1 $-1 $-1 $81 @10 ASM ENTITY @36 34981775-c3f9-4c62-8b56-9d9adc30beee #
ellipse-curve $-1 -1 $-1 142.9516943338165618 99.43607542113214492 78.80316576190173805 -2.0847889452522112e-16 0.6809437453161916176 -0.7323357260947723768 8.75 3.044553529816823634e-15 3.39979803581497822e-16 1 I I #
point $-1 -1 $-1 138.2850276671498762 104.8565829647458258 83.84328681122673288 #
DXID-attrib $-1 -1 $-1 $-1 $89 @10 ASM ENTITY @36 a724019a-4306-4216-98d3-4cc0700a4f3f #
ellipse-curve $-1 -1 $-1 142.9516943338165618 131.9591206828143584 109.0438920578518633 -2.0847889452522112e-16 0.6809437453161916176 -0.7323357260947723768 8.75 3.044553529816823634e-15 3.39979803581497822e-16 1 I I #
coedge $-1 -1 $-1 $131 $132 $133 $134 reversed $92 $-1 #
coedge $-1 -1 $-1 $135 $93 $136 $137 forward $66 $-1 #
coedge $-1 -1 $-1 $93 $138 $125 $139 forward $66 $-1 #
edge $-1 -1 $-1 $140 -1.570796326794896336 $141 -3.53139735137180302e-16 $93 $142 forward @7 unknown #
DXID-attrib $-1 -1 $-1 $-1 $95 @10 ASM ENTITY @36 72570cd8-b663-4b31-9ab3-b864a062dd44 #
face $143 -1 $-1 $144 $145 $5 $-1 $146 forward single #
loop $-1 -1 $-1 $-1 $147 $95 #
plane-surface $-1 -1 $-1 185 0 0 1 1.57898385724466714e-16 0 -1.578983857244667189e-15 10 0 forward_v I I I I #
DXID-attrib $-1 -1 $-1 $-1 $98 @10 ASM ENTITY @36 23c8c9d7-3423-4554-ac41-3f63b9b5fe70 #
face $148 -1 $-1 $149 $150 $5 $-1 $151 reversed single #
loop $-1 -1 $-1 $-1 $152 $98 #
cone-surface $-1 -1 $-1 48.95169433381656177 93.50911035082106082 86.94706751918447196 0 0.6809437453161916176 -0.7323357260947723768 -14 -2.883812058103550221e-15 -2.681439282096282854e-15 1 I I 0 1 14 forward I I I I #
coedge $-1 -1 $-1 $153 $154 $115 $139 reversed $99 $-1 #
coedge $-1 -1 $-1 $155 $101 $154 $156 forward $72 $-1 #
coedge $-1 -1 $-1 $101 $155 $157 $158 reversed $72 $-1 #
DXID-attrib $-1 -1 $-1 $-1 $103 @10 ASM ENTITY @36 e67da7f4-d713-44ea-9bf1-fae83e6a6b44 #
ellipse-curve $-1 -1 $-1 128.9516943338165333 115.6975980519732445 93.92352890987679359 2.0847889452522112e-16 -0.6809437453161916176 0.7323357260947723768 -17.5 -6.089107059633647269e-15 -6.799596071629956439e-16 1 I I #
point $-1 -1 $-1 138.2850276671498762 126.5386131392006206 104.0037710085267975 #
coedge $-1 -1 $-1 $159 $113 $160 $161 reversed $92 $-1 #
coedge $-1 -1 $-1 $113 $159 $162 $163 forward $92 $-1 #
coedge $-1 -1 $-1 $164 $147 $113 $134 forward $119 $-1 #
edge $-1 -1 $-1 $165 -28.5 $166 2.279219397107397434e-15 $133 $167 forward @7 unknown #
coedge $-1 -1 $-1 $168 $114 $169 $170 forward $66 $-1 #
coedge $-1 -1 $-1 $157 $171 $114 $137 reversed $172 $-1 #
edge $-1 -1 $-1 $141 2.447584716690829776 $173 3.047584716690830309 $114 $174 forward @7 unknown #
coedge $-1 -1 $-1 $115 $175 $152 $176 forward $66 $-1 #
edge $-1 -1 $-1 $177 6.384306201300898209 $140 10.5843062013008975 $115 $178 forward @7 unknown #
vertex $-1 -1 $-1 $116 $179 #
vertex $-1 -1 $-1 $116 $180 #
ellipse-curve $-1 -1 $-1 48.95169433381654756 124.2672108468014756 115.5467048224645197 -2.0847889452522112e-16 0.6809437453161916176 -0.7323357260947723768 -3.937827905080725631e-15 10.25270016532681439 9.533212434426683757 1 I I #
DXID-attrib $-1 -1 $-1 $-1 $118 @10 ASM ENTITY @36 f2620282-9d6e-4adb-af9f-816fa3e7b95e #
face $181 -1 $-1 $-1 $182 $5 $-1 $183 reversed single #
loop $-1 -1 $-1 $-1 $184 $118 #
plane-surface $-1 -1 $-1 -1.377727649040772184e-13 450 0 -1 -3.061616997868382648e-16 0 3.061616997868382648e-15 -10 0 forward_v I I I I #
coedge $-1 -1 $-1 $133 $164 $185 $186 forward $119 $-1 #
DXID-attrib $-1 -1 $-1 $-1 $122 @10 ASM ENTITY @36 ab567332-2fc3-40cb-9ea8-a452585be31f #
face $187 -1 $-1 $188 $189 $5 $-1 $190 reversed single #
loop $-1 -1 $-1 $-1 $191 $122 #
plane-surface $-1 -1 $-1 58.95169433381656887 83.25641018549424643 77.41385508475778465 2.812734217914804444e-16 -0.7323357260947723768 -0.6809437453161916176 -10 -3.479489748362084266e-15 -3.885483469502832392e-16 forward_v I I I I #
coedge $-1 -1 $-1 $192 $193 $138 $176 reversed $123 $-1 #
coedge $-1 -1 $-1 $194 $125 $193 $195 forward $99 $-1 #
coedge $-1 -1 $-1 $125 $194 $126 $156 reversed $99 $-1 #
coedge $-1 -1 $-1 $127 $126 $196 $197 forward $72 $-1 #
edge $198 -1 $-1 $140 0 $199 1.000000000000000444 $154 $200 forward @7 tangent #
coedge $-1 -1 $-1 $201 $136 $127 $158 forward $172 $-1 #
edge $202 -1 $-1 $141 0 $203 1.000000000000000444 $157 $204 forward @7 tangent #
coedge $-1 -1 $-1 $132 $131 $205 $206 reversed $92 $-1 #
coedge $-1 -1 $-1 $185 $207 $131 $161 forward $208 $-1 #
edge $209 -1 $-1 $210 0 $165 18.50000000000000355 $131 $211 forward @7 unknown #
coedge $-1 -1 $-1 $212 $213 $132 $163 reversed $182 $-1 #
edge $-1 -1 $-1 $214 0 $166 18.5 $162 $215 forward @7 unknown #
coedge $-1 -1 $-1 $147 $133 $213 $216 forward $119 $-1 #
vertex $-1 -1 $-1 $186 $217 #
vertex $-1 -1 $-1 $134 $218 #
straight-curve $-1 -1 $-1 185 2.523792938415054312e-14 6.328799787128347364e-15 1.156346289587197788e-15 -7.323357260947723546 -6.809437453161915954 I I #
coedge $-1 -1 $-1 $219 $135 $220 $221 forward $66 $-1 #
coedge $-1 -1 $-1 $222 $223 $135 $170 reversed $224 $-1 #
edge $-1 -1 $-1 $173 -1.570796326794897002 $225 1.570796326794890563 $135 $226 forward @7 unknown #
coedge $-1 -1 $-1 $136 $201 $222 $227 reversed $172 $-1 #
loop $-1 -1 $-1 $-1 $136 $228 #
vertex $-1 -1 $-1 $170 $229 #
straight-curve $-1 -1 $-1 24.47584716690824536 134.5199110121282899 125.079917256891207 10 3.479489748362083477e-15 3.885483469502834364e-16 I I #
coedge $-1 -1 $-1 $138 $219 $191 $230 forward $66 $-1 #
edge $-1 -1 $-1 $231 -1.570796326794896336 $177 3.46480919324593409e-16 $138 $232 forward @7 unknown #
vertex $-1 -1 $-1 $139 $233 #
straight-curve $-1 -1 $-1 34.95169433381658308 46.75455517541053752 43.4735337595922573 -2.812734217914804247e-15 7.323357260947723546 6.809437453161915954 I I #
point $-1 -1 $-1 34.95169433381655466 124.267210846801504 115.5467048224645055 #
point $-1 -1 $-1 48.95169433381654045 134.5199110121282899 125.079917256891207 #
DXID-attrib $-1 -1 $-1 $-1 $144 @10 ASM ENTITY @36 8af13270-f36a-46b1-9e35-28fe154353c0 #
loop $-1 -1 $-1 $-1 $234 $144 #
plane-surface $-1 -1 $-1 92.49999999999992895 225 0 0 0 1 10 0 0 forward_v I I I I #
coedge $-1 -1 $-1 $235 $205 $207 $236 forward $145 $-1 #
coedge $-1 -1 $-1 $237 $160 $147 $186 reversed $208 $-1 #
edge $-1 -1 $-1 $238 -26.50000000000000711 $165 -7.44017546852815374e-15 $147 $239 forward @7 unknown #
DXID-attrib $-1 -1 $-1 $-1 $149 @10 ASM ENTITY @36 dd3cd084-3698-4a5f-a760-af8f252c752c #
face $240 -1 $-1 $241 $242 $5 $-1 $243 reversed single #
loop $-1 -1 $-1 $-1 $244 $149 #
cone-surface $-1 -1 $-1 58.95169433381656887 97.74392128867344809 90.88469874209984312 0 0.6809437453161916176 -0.7323357260947723768 19.78260869565217206 4.074951821233277675e-15 3.788990289918659774e-15 1 I I 0 1 19.78260869565217206 forward I I I I #
coedge $-1 -1 $-1 $245 $246 $175 $230 reversed $150 $-1 #
coedge $-1 -1 $-1 $247 $152 $246 $248 forward $123 $-1 #
coedge $-1 -1 $-1 $152 $247 $153 $195 reversed $123 $-1 #
coedge $-1 -1 $-1 $154 $153 $249 $250 forward $99 $-1 #
edge $251 -1 $-1 $177 0 $252 1.000000000000000444 $193 $253 forward @7 tangent #
coedge $-1 -1 $-1 $249 $254 $155 $197 reversed $255 $-1 #
edge $256 -1 $-1 $199 -1.570796326794896336 $203 -3.531397351371803513e-16 $155 $257 forward @7 unknown #
DXID-attrib $-1 -1 $-1 $-1 $156 @10 ASM ENTITY @36 c42e92a5-aa8a-403c-b162-6cda389e4cb6 #
vertex $-1 -1 $-1 $156 $258 #
straight-curve $-1 -1 $-1 34.95169433381655466 124.267210846801504 115.5467048224645055 0 6.809437453161915954 -7.323357260947723546 I I #
coedge $-1 -1 $-1 $171 $157 $254 $259 forward $172 $-1 #
DXID-attrib $-1 -1 $-1 $-1 $158 @10 ASM ENTITY @36 d153c24f-7214-4368-b4f1-16aecc8db312 #
vertex $-1 -1 $-1 $197 $260 #
straight-curve $-1 -1 $-1 48.95169433381654045 134.5199110121282899 125.079917256891207 0 6.809437453161915954 -7.323357260947723546 I I #
coedge $-1 -1 $-1 $184 $235 $159 $206 forward $145 $-1 #
edge $-1 -1 $-1 $214 -16.47755383713237975 $210 12.02244616286761669 $205 $261 forward @7 unknown #
coedge $-1 -1 $-1 $160 $237 $184 $236 reversed $208 $-1 #
loop $-1 -1 $-1 $-1 $185 $262 #
DXID-attrib $-1 -1 $-1 $-1 $161 @10 ASM ENTITY @36 e2c8ff94-c2ec-4aa1-9d73-93a192242d78 #
vertex $-1 -1 $-1 $236 $263 #
straight-curve $-1 -1 $-1 -6.390074795400411008e-14 208.7156819370101175 194.0689674151146278 10 3.061616997868382648e-15 0 I I #
coedge $-1 -1 $-1 $234 $162 $235 $264 reversed $182 $-1 #
coedge $-1 -1 $-1 $162 $234 $164 $216 reversed $182 $-1 #
vertex $-1 -1 $-1 $206 $265 #
straight-curve $-1 -1 $-1 0 0 0 10 0 0 F 0 F 18.5 #
edge $266 -1 $-1 $166 0 $238 38.91657744458010626 $164 $267 forward @7 unknown #
point $-1 -1 $-1 184.9999999999999716 208.7156819370102028 194.0689674151146278 #
point $-1 -1 $-1 185 0 0 #
coedge $-1 -1 $-1 $175 $168 $244 $268 forward $66 $-1 #
coedge $-1 -1 $-1 $269 $270 $168 $221 reversed $242 $-1 #
edge $-1 -1 $-1 $225 2.747584716690902873 $271 3.147584716690881024 $168 $272 forward @7 unknown #
coedge $-1 -1 $-1 $273 $169 $171 $227 forward $224 $-1 #
coedge $-1 -1 $-1 $169 $273 $269 $274 reversed $224 $-1 #
loop $-1 -1 $-1 $-1 $169 $241 #
vertex $-1 -1 $-1 $221 $275 #
ellipse-curve $-1 -1 $-1 54.95169433381655466 123.3756717019904414 114.7177298281665401 -2.0847889452522112e-16 0.6809437453161916176 -0.7323357260947723768 15.21739130434782794 3.134578324025598667e-15 2.914607915322046375e-15 1 I I #
edge $276 -1 $-1 $173 0 $277 1.000000000000000444 $171 $278 forward @7 tangent #
face $279 -1 $-1 $280 $172 $5 $-1 $281 reversed single #
point $-1 -1 $-1 54.95169433381654756 134.5199110121282899 125.079917256891207 #
edge $-1 -1 $-1 $282 -2.94758471669083022 $231 -1.947584716690829332 $175 $283 forward @7 unknown #
vertex $-1 -1 $-1 $176 $284 #
ellipse-curve $-1 -1 $-1 48.95169433381656177 93.50911035082104661 86.94706751918448617 -2.0847889452522112e-16 0.6809437453161916176 -0.7323357260947723768 -14 -2.883812058103550221e-15 -2.681439282096282854e-15 1 I I #
point $-1 -1 $-1 34.95169433381656177 93.50911035082106082 86.94706751918447196 #
coedge $-1 -1 $-1 $213 $212 $237 $285 forward $182 $-1 #
coedge $-1 -1 $-1 $205 $184 $212 $264 forward $145 $-1 #
edge $-1 -1 $-1 $210 -15.32123426961431356 $286 11.17876573038568822 $184 $287 forward @7 unknown #
coedge $-1 -1 $-1 $207 $185 $234 $285 reversed $208 $-1 #
vertex $-1 -1 $-1 $186 $288 #
straight-curve $-1 -1 $-1 184.9999999999999716 208.7156819370101175 194.0689674151146846 1.075199181545991012e-15 -6.809437453161919507 7.32335726094772177 I I #
DXID-attrib $-1 -1 $-1 $-1 $188 @10 ASM ENTITY @36 733b5a51-eb63-4681-b105-50fdc70cab73 #
face $289 -1 $-1 $228 $224 $5 $-1 $290 reversed single #
loop $-1 -1 $-1 $-1 $220 $188 #
plane-surface $-1 -1 $-1 54.95169433381665414 112.2314323918525929 104.3555423994418732 -9.16305761879321703e-15 0.7323357260947723768 0.6809437453161916176 10 6.852396853764551184e-14 6.086850230891555934e-14 forward_v I I I I #
coedge $-1 -1 $-1 $291 $292 $219 $268 reversed $189 $-1 #
coedge $-1 -1 $-1 $293 $191 $292 $294 forward $150 $-1 #
coedge $-1 -1 $-1 $191 $293 $192 $248 reversed $150 $-1 #
coedge $-1 -1 $-1 $193 $192 $295 $296 forward $123 $-1 #
edge $297 -1 $-1 $231 0 $298 1.000000000000000444 $246 $299 forward @7 tangent #
coedge $-1 -1 $-1 $295 $196 $194 $250 reversed $255 $-1 #
edge $300 -1 $-1 $252 -4.199999999999997513 $199 -0 $194 $301 forward @7 unknown #
DXID-attrib $-1 -1 $-1 $-1 $195 @10 ASM ENTITY @36 2b492024-ab4f-42f7-9d6b-d33cb5c93689 #
vertex $-1 -1 $-1 $195 $302 #
straight-curve $-1 -1 $-1 34.95169433381656177 93.50911035082106082 86.94706751918447196 0 6.809437453161915954 -7.323357260947723546 I I #
coedge $-1 -1 $-1 $196 $303 $201 $259 reversed $255 $-1 #
loop $-1 -1 $-1 $-1 $254 $280 #
DXID-attrib $-1 -1 $-1 $-1 $197 @10 ASM ENTITY @36 b9e5b32b-4690-4d7f-abc2-0483963e25cc #
ellipse-curve $-1 -1 $-1 48.95169433381654756 131.0766482999634377 108.223347561516789 -2.0847889452522112e-16 0.6809437453161916176 -0.7323357260947723768 -3.937827905080725631e-15 10.25270016532681439 9.53321243442668198 1 I I #
point $-1 -1 $-1 34.95169433381655466 131.0766482999634093 108.2233475615167748 #
edge $304 -1 $-1 $203 -0.6000000000000005329 $277 0 $201 $305 forward @7 unknown #
point $-1 -1 $-1 48.95169433381654045 141.3293484652902237 117.7565599959434763 #
straight-curve $-1 -1 $-1 -3.694484261912734998e-14 120.6710135358204496 112.2028722350611076 -2.242131507158039185e-15 7.323357260947723546 6.809437453161915954 I I #
face $306 -1 $-1 $67 $208 $5 $-1 $307 reversed single #
point $-1 -1 $-1 -6.390074795400411008e-14 208.7156819370101175 194.0689674151146278 #
edge $308 -1 $-1 $286 6.083422555419900846 $214 45 $235 $309 forward @7 unknown #
point $-1 -1 $-1 0 0 0 #
DXID-attrib $-1 -1 $-1 $-1 $216 @10 ASM ENTITY @36 4c5545f4-79c5-4ed1-9394-e18be97c6084 #
straight-curve $-1 -1 $-1 185 0 0 -1.578983857244667189e-15 10 0 F 0 F 45 #
edge $-1 -1 $-1 $271 -1.570796326794902997 $282 1.570796326794897002 $219 $310 forward @7 unknown #
coedge $-1 -1 $-1 $311 $220 $223 $274 forward $242 $-1 #
coedge $-1 -1 $-1 $220 $311 $291 $312 reversed $242 $-1 #
vertex $-1 -1 $-1 $268 $313 #
straight-curve $-1 -1 $-1 27.47584716690762718 112.2314323918524082 104.3555423994417026 10 6.852396853764549922e-14 6.08685023089155341e-14 I I #
coedge $-1 -1 $-1 $223 $222 $303 $314 forward $224 $-1 #
edge $315 -1 $-1 $225 0 $316 1.000000000000000444 $223 $317 forward @5 knife #
point $-1 -1 $-1 54.95169433381665414 112.2314323918525929 104.3555423994418447 #
DXID-attrib $-1 -1 $-1 $-1 $227 @10 ASM ENTITY @36 09f634f1-5d81-4c61-a98d-19511df31ebc #
vertex $-1 -1 $-1 $227 $318 #
straight-curve $-1 -1 $-1 54.95169433381654756 134.5199110121282899 125.079917256891207 0 6.809437453161915954 -7.323357260947723546 I I #
DXID-attrib $-1 -1 $-1 $-1 $228 @10 ASM ENTITY @36 da7e16d6-8324-475d-a84e-4b457be6d254 #
face $319 -1 $-1 $262 $255 $5 $-1 $320 forward single #
plane-surface $-1 -1 $-1 48.95169433381654045 134.5199110121282899 125.079917256891207 -2.812734217914804444e-16 0.7323357260947723768 0.6809437453161916176 10 3.479489748362084266e-15 3.885483469502832392e-16 forward_v I I I I #
vertex $-1 -1 $-1 $230 $321 #
straight-curve $-1 -1 $-1 29.47584716690826667 83.25641018549421801 77.41385508475778465 -10 -3.479489748362083477e-15 -3.885483469502834364e-16 I I #
point $-1 -1 $-1 48.95169433381656177 83.25641018549424643 77.41385508475778465 #
edge $-1 -1 $-1 $286 -4.624999999999999112 $238 13.87500000000000533 $234 $322 forward @7 unknown #
vertex $-1 -1 $-1 $285 $323 #
straight-curve $-1 -1 $-1 -9.58422877869153819e-14 313.0446684011897105 81.866095180053577 -2.084788945252212137e-15 6.809437453161919507 -7.32335726094772177 I I #
point $-1 -1 $-1 184.9999999999999432 389.1657744458010484 0 #
DXID-attrib $-1 -1 $-1 $-1 $241 @10 ASM ENTITY @36 fa4b5d88-4efb-4433-90c3-94813f5c3685 #
cone-surface $-1 -1 $-1 54.95169433381655466 123.3756717019904556 114.7177298281665259 0 0.6809437453161916176 -0.7323357260947723768 15.21739130434782794 3.134578324025598667e-15 2.914607915322046375e-15 1 I I 0 1 15.21739130434782794 forward I I I I #
coedge $-1 -1 $-1 $324 $244 $270 $312 forward $189 $-1 #
coedge $-1 -1 $-1 $244 $324 $245 $294 reversed $189 $-1 #
coedge $-1 -1 $-1 $246 $245 $325 $326 forward $150 $-1 #
edge $327 -1 $-1 $282 0 $328 1.000000000000000444 $292 $329 forward @7 tangent #
coedge $-1 -1 $-1 $325 $249 $247 $296 reversed $255 $-1 #
edge $330 -1 $-1 $298 -1.570796326794896336 $252 2.812734217914804444e-16 $247 $331 forward @7 unknown #
DXID-attrib $-1 -1 $-1 $-1 $248 @10 ASM ENTITY @36 ced1f0d5-b93d-4982-8cfc-5ab6df9cb035 #
vertex $-1 -1 $-1 $248 $332 #
straight-curve $-1 -1 $-1 48.95169433381656177 83.25641018549424643 77.41385508475778465 0 6.809437453161915954 -7.323357260947723546 I I #
DXID-attrib $-1 -1 $-1 $-1 $250 @10 ASM ENTITY @36 a451631d-441d-4353-8889-03e65f130b9a #
straight-curve $-1 -1 $-1 34.95169433381655466 131.0766482999634377 108.223347561516789 -2.812734217914804247e-15 7.323357260947723546 6.809437453161915954 I I #
point $-1 -1 $-1 34.95169433381656177 100.3185478039829803 79.62371025823674131 #
coedge $-1 -1 $-1 $254 $333 $273 $314 reversed $255 $-1 #
DXID-attrib $-1 -1 $-1 $-1 $259 @10 ASM ENTITY @36 24e99725-8047-42c2-84e4-2660a76c44b1 #
straight-curve $-1 -1 $-1 54.95169433381654756 141.3293484652902237 117.7565599959434905 10 3.479489748362084266e-15 3.885483469502832392e-16 I I #
DXID-attrib $-1 -1 $-1 $-1 $262 @10 ASM ENTITY @36 ddfd97ee-5bb9-4468-a0c4-f009adb46245 #
plane-surface $-1 -1 $-1 -6.390074795400411008e-14 208.7156819370101175 194.0689674151146278 2.242131507158038298e-16 -0.7323357260947721548 -0.6809437453161919507 -2.084788945252212137e-15 6.809437453161919507 -7.32335726094772177 forward_v I I I I #
DXID-attrib $-1 -1 $-1 $-1 $264 @10 ASM ENTITY @36 ac7102a2-abd7-4939-a10c-6d0358f283cc #
straight-curve $-1 -1 $-1 -1.377727649040772184e-13 450 0 3.061616997868382648e-15 -10 0 F 0 F 45 #
ellipse-curve $-1 -1 $-1 58.95169433381656887 97.74392128867341967 90.88469874209985733 -2.0847889452522112e-16 0.6809437453161916176 -0.7323357260947723768 19.78260869565217206 4.074951821233277675e-15 3.788990289918659774e-15 1 I I #
coedge $-1 -1 $-1 $270 $269 $333 $334 forward $242 $-1 #
edge $335 -1 $-1 $271 0 $336 1.000000000000000444 $270 $337 forward @7 tangent #
point $-1 -1 $-1 58.95169433381643387 112.2314323918526213 104.3555423994418874 #
edge $338 -1 $-1 $277 -1.570796326794897002 $316 1.570796326794890563 $273 $339 forward @7 unknown #
DXID-attrib $-1 -1 $-1 $-1 $274 @10 ASM ENTITY @36 296e4309-29a3-4af4-8ba0-6b5e40365727 #
vertex $-1 -1 $-1 $274 $340 #
straight-curve $-1 -1 $-1 54.95169433381665414 112.2314323918525929 104.3555423994418447 0 6.809437453161915954 -7.323357260947723546 I I #
point $-1 -1 $-1 54.95169433381654756 141.3293484652902237 117.7565599959434763 #
DXID-attrib $-1 -1 $-1 $-1 $280 @10 ASM ENTITY @36 f85baec7-dc72-4e2e-b813-bdae05589626 #
plane-surface $-1 -1 $-1 56.84299868164264069 115.6975980519732019 93.92352890987679359 2.0847889452522112e-16 -0.6809437453161916176 0.7323357260947723768 10 0 -2.846766682228495095e-15 forward_v I I I I #
point $-1 -1 $-1 58.95169433381656887 83.25641018549424643 77.41385508475778465 #
straight-curve $-1 -1 $-1 46.2499999999998721 389.1657744458010484 0 10 3.061616997868382254e-15 0 I I #
point $-1 -1 $-1 -1.191476550031877317e-13 389.1657744458009915 0 #
coedge $-1 -1 $-1 $292 $291 $341 $342 forward $189 $-1 #
coedge $-1 -1 $-1 $341 $295 $293 $326 reversed $255 $-1 #
edge $343 -1 $-1 $328 -1.000000000000000888 $298 -0 $293 $344 forward @7 unknown #
DXID-attrib $-1 -1 $-1 $-1 $294 @10 ASM ENTITY @36 1982bf31-23a9-45b6-852b-f0218d9ae286 #
vertex $-1 -1 $-1 $294 $345 #
straight-curve $-1 -1 $-1 58.95169433381656887 83.25641018549424643 77.41385508475778465 0 6.809437453161915954 -7.323357260947723546 I I #
DXID-attrib $-1 -1 $-1 $-1 $296 @10 ASM ENTITY @36 e6d315b1-7c62-4938-bca7-f3ae49325bd6 #
ellipse-curve $-1 -1 $-1 48.95169433381656177 100.3185478039829945 79.62371025823676973 -2.0847889452522112e-16 0.6809437453161916176 -0.7323357260947723768 -14 -4.87128564770691813e-15 -5.439676857303965151e-16 1 I I #
point $-1 -1 $-1 48.95169433381656177 90.06584763865616594 70.090497823810054 #
coedge $-1 -1 $-1 $303 $341 $311 $334 reversed $255 $-1 #
edge $346 -1 $-1 $316 -0.3999999999999781508 $336 0 $311 $347 forward @7 unknown #
DXID-attrib $-1 -1 $-1 $-1 $312 @10 ASM ENTITY @36 1d7cd252-c5e4-4f49-a516-e626dfe69cb7 #
vertex $-1 -1 $-1 $312 $348 #
straight-curve $-1 -1 $-1 58.95169433381643387 112.2314323918526213 104.3555423994418874 0 6.809437453161915954 -7.323357260947723546 I I #
DXID-attrib $-1 -1 $-1 $-1 $314 @10 ASM ENTITY @36 1ddce33d-40be-4a6c-83a9-fa46b15bc2bb #
ellipse-curve $-1 -1 $-1 54.95169433381655466 130.1851091551523893 107.3943725672188236 -2.0847889452522112e-16 0.6809437453161916176 -0.7323357260947723768 15.21739130434782794 5.294875704029259077e-15 5.912692236199962979e-16 1 I I #
point $-1 -1 $-1 54.95169433381665414 119.0408698450144982 97.0321851384941283 #
coedge $-1 -1 $-1 $333 $325 $324 $342 reversed $255 $-1 #
edge $349 -1 $-1 $336 -1.570796326794902997 $328 1.570796326794897002 $324 $350 forward @7 unknown #
DXID-attrib $-1 -1 $-1 $-1 $326 @10 ASM ENTITY @36 f041f393-780d-439e-8a60-0902cde5b219 #
straight-curve $-1 -1 $-1 48.95169433381656177 90.06584763865618015 70.09049782381006821 -10 -3.479489748362084266e-15 -3.885483469502832392e-16 I I #
point $-1 -1 $-1 58.95169433381656887 90.06584763865616594 70.090497823810054 #
DXID-attrib $-1 -1 $-1 $-1 $334 @10 ASM ENTITY @36 447b0e84-1a21-4e45-bec1-69d9b1dc2482 #
straight-curve $-1 -1 $-1 58.95169433381643387 119.040869845014555 97.03218513849418514 10 6.852396853764551184e-14 6.086850230891555934e-14 I I #
point $-1 -1 $-1 58.95169433381643387 119.0408698450145408 97.03218513849415672 #
DXID-attrib $-1 -1 $-1 $-1 $342 @10 ASM ENTITY @36 da39bc9b-64cd-47ad-9f54-d8202894d434 #
ellipse-curve $-1 -1 $-1 58.95169433381656887 104.5533587418353818 83.56134148115214089 -2.0847889452522112e-16 0.6809437453161916176 -0.7323357260947723768 19.78260869565217206 6.88333841523803546e-15 7.686499907059950886e-16 1 I I #
End-of-ACIS-data 